<svg width="36" height="36" viewBox="0 0 36 36" fill="none" xmlns="http://www.w3.org/2000/svg">
<path d="M33.1136 27.0469L19.1051 34.822C18.433 35.195 17.3333 35.195 16.6614 34.822L2.65278 27.0469C2.31676 26.8604 2.14878 26.6145 2.14878 26.3687H2V9H33.6176V26.3687C33.6176 26.6145 33.4497 26.8604 33.1136 27.0469Z" fill="#4495FF"/>
<path d="M33.7254 9.3155V26.6842C33.7254 26.9301 33.5574 27.1759 33.2214 27.3625L19.2129 35.1375C18.8634 35.3314 18.3984 35.4238 17.9379 35.4159C17.9488 26.7185 18.1961 18.0103 17.9258 9.31543L33.7254 9.3155Z" fill="#006EFF"/>
<path d="M16.7664 17.7692L2.75794 9.99411C2.08589 9.6211 2.08589 9.01079 2.75794 8.63778L16.7664 0.862764C17.4385 0.489756 18.5382 0.489756 19.2102 0.862764L33.2187 8.63785C33.8908 9.01086 33.8908 9.62117 33.2187 9.99418L19.2102 17.7692C18.5382 18.1422 17.4385 18.1422 16.7664 17.7692Z" fill="#00BCD4"/>
<path d="M27.4992 5.2117C27.4985 5.29389 27.4757 5.37437 27.4331 5.44466C27.3905 5.51496 27.3297 5.57247 27.2572 5.61115L10.4726 14.5581C10.4495 14.5704 10.4254 14.5807 10.4005 14.5889L10.3438 14.6206V31.3177C10.3438 31.3973 10.323 31.4754 10.2835 31.5445C10.244 31.6136 10.1872 31.6712 10.1186 31.7116C10.05 31.7519 9.97211 31.7737 9.89254 31.7747C9.81298 31.7757 9.73453 31.7559 9.66495 31.7173L6.85245 30.1563C6.78115 30.1168 6.72173 30.0588 6.68036 29.9886C6.63899 29.9183 6.61718 29.8382 6.61719 29.7567V13.5085C6.61726 13.2297 6.67993 12.9545 6.80056 12.7031C6.9212 12.4517 7.09673 12.2307 7.3142 12.0562L7.33079 12.0433C7.36763 12.0144 7.40258 11.9891 7.43851 11.9648C7.4919 11.9285 7.54709 11.895 7.60388 11.8644L23.8981 3.17883C23.9654 3.14293 24.0407 3.12447 24.117 3.12512C24.1933 3.12577 24.2682 3.14551 24.3349 3.18256L27.264 4.80825C27.3359 4.84815 27.3956 4.90668 27.437 4.97768C27.4784 5.04868 27.4999 5.12952 27.4992 5.2117ZM29.047 12.2803C28.9407 12.159 28.819 12.0521 28.685 11.9623C28.6763 11.9563 28.6675 11.9503 28.6571 11.9436C28.6136 11.9152 28.5689 11.8887 28.5232 11.8642L12.229 3.17876C12.1617 3.14284 12.0865 3.12437 12.0102 3.12502C11.9339 3.12567 11.859 3.14543 11.7923 3.18249L8.86311 4.80818C8.79121 4.84805 8.7314 4.90658 8.68998 4.97759C8.64856 5.04861 8.62707 5.12948 8.62777 5.21169C8.62847 5.2939 8.65133 5.3744 8.69395 5.4447C8.73657 5.51501 8.79737 5.57251 8.86993 5.61115L25.6545 14.5581C25.6779 14.5705 25.702 14.5808 25.7267 14.5889L25.7834 14.6206V31.3178C25.7834 31.3973 25.8042 31.4755 25.8436 31.5446C25.8831 31.6137 25.94 31.6713 26.0085 31.7116C26.0771 31.752 26.155 31.7738 26.2346 31.7748C26.3142 31.7758 26.3926 31.756 26.4622 31.7174L29.2747 30.1564C29.346 30.1168 29.4054 30.0589 29.4467 29.9886C29.4881 29.9183 29.5099 29.8383 29.51 29.7567V13.5085C29.5097 13.0565 29.3452 12.62 29.047 12.2803Z" fill="white"/>
<path d="M23.5954 9.6382C23.5954 10.7851 22.1888 11.6174 20.2507 11.6174C19.4604 11.6174 18.7586 11.4788 18.2044 11.2371C18.1336 11.2064 18.0569 11.1916 17.9798 11.1939C17.9027 11.1962 17.827 11.2155 17.7582 11.2504C17.1806 11.5419 16.4147 11.7118 15.54 11.7118C13.602 11.7118 12.1953 10.8794 12.1953 9.73256C12.1953 9.15515 12.5519 8.65755 13.1534 8.30563C13.3903 8.16705 13.4898 7.87124 13.3725 7.62311C12.9438 6.7165 12.9576 5.86593 13.4834 5.34013C13.7557 5.06781 14.1286 4.92388 14.562 4.92388C14.8664 4.92388 15.197 4.99581 15.5367 5.13088C15.6672 5.18293 15.8129 5.18157 15.9424 5.12707C16.072 5.07258 16.1748 4.96934 16.2289 4.83965C16.578 4.00637 17.1556 3.49316 17.8482 3.49316C18.5289 3.49316 19.0988 3.98894 19.4496 4.79725C19.566 5.06556 19.8734 5.1936 20.1437 5.08202C20.4987 4.93555 20.8445 4.85723 21.162 4.85723C21.7094 4.85723 22.0507 5.08356 22.2406 5.27348C22.7574 5.79034 22.7797 6.62095 22.3731 7.51019C22.2591 7.75966 22.3602 8.05483 22.599 8.18976C23.2235 8.54259 23.5954 9.04877 23.5954 9.6382Z" fill="#006EFF"/>
</svg>
