<svg width="24" height="24" viewBox="0 0 24 24" fill="none" xmlns="http://www.w3.org/2000/svg">
<g clip-path="url(#clip0_331_2103)">
<path d="M12.3158 3.07005C12.2167 3.02391 12.1086 3 11.9993 3C11.8899 3 11.7819 3.02391 11.6828 3.07005L0.432784 8.32005C0.300307 8.38189 0.188791 8.48109 0.11195 8.60547C0.0351095 8.72984 -0.0037056 8.87396 0.000278659 9.02011C0.00426292 9.16625 0.0508728 9.30804 0.134376 9.42804C0.217879 9.54805 0.334635 9.64103 0.470284 9.69555L11.7203 14.1956C11.8994 14.2673 12.0992 14.2673 12.2783 14.1956L20.9993 10.7096V19.4996C20.6015 19.4996 20.2199 19.6576 19.9386 19.9389C19.6573 20.2202 19.4993 20.6017 19.4993 20.9996V23.9996H23.9993V20.9996C23.9993 20.6017 23.8412 20.2202 23.5599 19.9389C23.2786 19.6576 22.8971 19.4996 22.4993 19.4996V10.1081L23.5283 9.69555C23.6639 9.64103 23.7807 9.54805 23.8642 9.42804C23.9477 9.30804 23.9943 9.16625 23.9983 9.02011C24.0023 8.87396 23.9635 8.72984 23.8866 8.60547C23.8098 8.48109 23.6983 8.38189 23.5658 8.32005L12.3158 3.07005ZM11.9993 12.6896L2.63628 8.94705L11.9993 4.57755L21.3623 8.94705L11.9993 12.6896Z" fill="#13183A"/>
<path d="M6.26435 13.5481C6.16777 13.5118 6.06473 13.4957 5.96166 13.501C5.85859 13.5062 5.75772 13.5327 5.66536 13.5788C5.573 13.6248 5.49113 13.6894 5.42488 13.7685C5.35863 13.8477 5.30943 13.9396 5.28035 14.0386L4.53035 16.5886C4.47781 16.7677 4.49389 16.9598 4.57543 17.1276C4.65698 17.2954 4.79814 17.4268 4.97135 17.4961L11.7213 20.1961C11.9004 20.2679 12.1003 20.2679 12.2793 20.1961L19.0293 17.4961C19.2026 17.4268 19.3437 17.2954 19.4253 17.1276C19.5068 16.9598 19.5229 16.7677 19.4703 16.5886L18.7203 14.0386C18.6913 13.9396 18.6421 13.8477 18.5758 13.7685C18.5096 13.6894 18.4277 13.6248 18.3353 13.5788C18.243 13.5327 18.1421 13.5062 18.039 13.501C17.936 13.4957 17.8329 13.5118 17.7363 13.5481L12.0003 15.6991L6.26435 13.5481ZM6.16235 16.3576L6.49235 15.2356L11.7363 17.2021C11.9065 17.2661 12.0942 17.2661 12.2643 17.2021L17.5083 15.2356L17.8383 16.3576L12.0003 18.6901L6.16235 16.3576Z" fill="#13183A"/>
</g>
<defs>
<clipPath id="clip0_331_2103">
<rect width="24" height="24" fill="white"/>
</clipPath>
</defs>
</svg>
