<svg width="51" height="35" viewBox="0 0 51 35" fill="none" xmlns="http://www.w3.org/2000/svg">
<g filter="url(#filter0_d_1059_36807)">
<path d="M4.69222 27.2878C3.75805 27.0418 3.20171 26.0908 3.44959 25.1636L7.52178 9.93246C7.76966 9.0053 8.72791 8.45313 9.66208 8.69915L25.0083 12.7408C25.9425 12.9868 26.4988 13.9379 26.2509 14.865L22.1787 30.0962C21.9309 31.0233 20.9726 31.5755 20.0384 31.3295L4.69222 27.2878Z" stroke="url(#paint0_linear_1059_36807)" stroke-width="0.4375" shape-rendering="crispEdges"/>
</g>
<g filter="url(#filter1_d_1059_36807)">
<path d="M6.57563 26.1311C5.64253 25.8815 5.09028 24.9295 5.34216 24.0047L8.67007 11.7867C8.92195 10.8619 9.88256 10.3147 10.8157 10.5643L23.1443 13.8623C24.0774 14.1119 24.6297 15.0639 24.3778 15.9887L21.0499 28.2067C20.798 29.1314 19.8374 29.6787 18.9043 29.4291L6.57563 26.1311Z" fill="#6F57FF"/>
</g>
<g filter="url(#filter2_d_1059_36807)">
<path d="M23.9106 6.28405C24.3098 5.41089 23.9515 4.36714 23.1102 3.95276L20.921 2.87449C20.0797 2.46011 19.0741 2.83203 18.6748 3.70519L17.6359 5.97725C17.2366 6.85041 17.595 7.89417 18.4363 8.30855L20.6254 9.38681C21.4667 9.80119 22.4724 9.42928 22.8717 8.55612L23.9106 6.28405Z" fill="#6F57FF"/>
</g>
<g filter="url(#filter3_d_1059_36807)">
<path d="M30.5916 10.9123C30.8601 10.5233 30.7824 9.97548 30.4182 9.68877L29.249 8.76835C28.8848 8.48164 28.372 8.56458 28.1035 8.95359L27.2418 10.2025C26.9734 10.5915 27.0511 11.1392 27.4153 11.426L28.5845 12.3464C28.9487 12.6331 29.4615 12.5501 29.7299 12.1611L30.5916 10.9123Z" fill="#6F57FF"/>
</g>
<path d="M31.5184 15.6602C31.8054 15.6602 32.0714 15.6672 32.3164 15.6812C32.5684 15.6952 32.8064 15.7197 33.0304 15.7547C33.2544 15.7897 33.4749 15.8387 33.6919 15.9017L33.5764 16.8677C33.3454 16.8537 33.1179 16.8432 32.8939 16.8362C32.6699 16.8222 32.4459 16.8152 32.2219 16.8152C32.0049 16.8082 31.7844 16.8047 31.5604 16.8047C31.2244 16.8047 30.9409 16.8397 30.7099 16.9097C30.4789 16.9727 30.2934 17.0987 30.1534 17.2877C30.0204 17.4767 29.9224 17.7462 29.8594 18.0962C29.7964 18.4462 29.7649 18.8977 29.7649 19.4507C29.7649 20.1017 29.8069 20.6162 29.8909 20.9942C29.9819 21.3652 30.1289 21.6347 30.3319 21.8027C30.5349 21.9637 30.8079 22.0442 31.1509 22.0442C31.3819 22.0442 31.5954 22.0162 31.7914 21.9602C31.9874 21.9042 32.1659 21.8307 32.3269 21.7397C32.4949 21.6417 32.6524 21.5437 32.7994 21.4457L32.9569 22.1282C32.8449 22.2682 32.6804 22.4222 32.4634 22.5902C32.2534 22.7512 32.0014 22.8912 31.7074 23.0102C31.4134 23.1222 31.0809 23.1782 30.7099 23.1782C30.1639 23.1782 29.7159 23.0487 29.3659 22.7897C29.0229 22.5237 28.7709 22.1142 28.6099 21.5612C28.4559 21.0012 28.3789 20.2837 28.3789 19.4087C28.3789 18.4567 28.4804 17.7077 28.6834 17.1617C28.8864 16.6157 29.2154 16.2307 29.6704 16.0067C30.1324 15.7757 30.7484 15.6602 31.5184 15.6602ZM33.9229 18.8627V23.0417H32.9569L32.7679 21.9602L32.6419 21.6977V18.8627H33.9229Z" fill="#6F57FF"/>
<path d="M36.5547 17.8862V23.0417H35.2947V17.8862H36.5547ZM36.2082 15.6497C36.4602 15.6497 36.5862 15.7757 36.5862 16.0277V16.6157C36.5862 16.8677 36.4602 16.9937 36.2082 16.9937H35.6412C35.3892 16.9937 35.2632 16.8677 35.2632 16.6157V16.0277C35.2632 15.7757 35.3892 15.6497 35.6412 15.6497H36.2082Z" fill="#6F57FF"/>
<path d="M40.0688 15.4922C40.1878 15.4922 40.3418 15.4957 40.5308 15.5027C40.7268 15.5097 40.9263 15.5202 41.1293 15.5342C41.3323 15.5412 41.5038 15.5587 41.6438 15.5867L41.5388 16.4372H40.5203C40.2263 16.4372 40.0198 16.4967 39.9008 16.6157C39.7818 16.7347 39.7223 16.9342 39.7223 17.2142V23.0417H38.4518V17.0567C38.4518 16.7277 38.5043 16.4477 38.6093 16.2167C38.7143 15.9857 38.8858 15.8072 39.1238 15.6812C39.3618 15.5552 39.6768 15.4922 40.0688 15.4922ZM41.2553 17.8862V18.7682H37.5383V17.9387L38.4938 17.8862H41.2553Z" fill="#6F57FF"/>
<path d="M43.8546 16.4162V21.4877C43.8546 21.7047 43.9001 21.8587 43.9911 21.9497C44.0891 22.0407 44.2536 22.0862 44.4846 22.0862H45.1986L45.3351 22.9787C45.2161 23.0137 45.0726 23.0452 44.9046 23.0732C44.7366 23.1012 44.5721 23.1187 44.4111 23.1257C44.2501 23.1397 44.1136 23.1467 44.0016 23.1467C43.5536 23.1467 43.2036 23.0277 42.9516 22.7897C42.7066 22.5447 42.5841 22.1947 42.5841 21.7397V16.4162H43.8546ZM45.3876 17.8862V18.7682H41.6706V17.9387L42.6786 17.8862H45.3876Z" fill="#6F57FF"/>
<path d="M29.9453 24.3277V31.5727H28.6328V24.3277H29.9453ZM32.9693 27.1942V28.2232H29.8613V27.1942H32.9693ZM34.1663 24.3277V31.5727H32.8538V24.3277H34.1663Z" fill="#1700A5"/>
<path d="M36.9243 26.4172V29.9032C36.9173 30.1622 36.9663 30.3477 37.0713 30.4597C37.1833 30.5717 37.3618 30.6277 37.6068 30.6277C37.8518 30.6277 38.0968 30.5752 38.3418 30.4702C38.5868 30.3652 38.8843 30.2077 39.2343 29.9977L39.3603 30.7537C38.9683 31.0687 38.5903 31.3067 38.2263 31.4677C37.8623 31.6287 37.4843 31.7092 37.0923 31.7092C36.1333 31.7092 35.6538 31.2367 35.6538 30.2917V26.4172H36.9243ZM40.3788 26.4172V31.5727H39.3708L39.2343 30.5752L39.1083 30.4282V26.4172H40.3788Z" fill="#1700A5"/>
<path d="M44.8519 26.2912C45.5099 26.2912 45.9894 26.4977 46.2904 26.9107C46.5914 27.3237 46.7419 28.0097 46.7419 28.9687C46.7419 29.3817 46.7034 29.7562 46.6264 30.0922C46.5564 30.4282 46.4304 30.7187 46.2484 30.9637C46.0734 31.2017 45.8284 31.3837 45.5134 31.5097C45.1984 31.6357 44.7959 31.6987 44.3059 31.6987C44.1309 31.6987 43.9314 31.6917 43.7074 31.6777C43.4834 31.6637 43.2559 31.6392 43.0249 31.6042C42.7939 31.5692 42.5699 31.5307 42.3529 31.4887C42.1429 31.4397 41.9539 31.3802 41.7859 31.3102L42.8044 30.5332C42.9584 30.5822 43.1194 30.6242 43.2874 30.6592C43.4624 30.6872 43.6339 30.7082 43.8019 30.7222C43.9769 30.7292 44.1379 30.7327 44.2849 30.7327C44.5649 30.7257 44.7854 30.6697 44.9464 30.5647C45.1144 30.4597 45.2369 30.2812 45.3139 30.0292C45.3909 29.7702 45.4294 29.4167 45.4294 28.9687C45.4294 28.5487 45.3979 28.2197 45.3349 27.9817C45.2789 27.7367 45.1739 27.5652 45.0199 27.4672C44.8659 27.3692 44.6454 27.3202 44.3584 27.3202C44.1064 27.3202 43.8719 27.3797 43.6549 27.4987C43.4449 27.6177 43.1999 27.7787 42.9199 27.9817L42.8359 27.2992C43.0249 27.0962 43.2244 26.9177 43.4344 26.7637C43.6514 26.6097 43.8789 26.4942 44.1169 26.4172C44.3619 26.3332 44.6069 26.2912 44.8519 26.2912ZM43.0564 24.2227L43.0669 26.0077C43.0669 26.2317 43.0564 26.4487 43.0354 26.6587C43.0214 26.8617 42.9864 27.0612 42.9304 27.2572L43.0564 27.4042V31.3732L41.7859 31.3102V24.2227H43.0564Z" fill="#1700A5"/>
<defs>
<filter id="filter0_d_1059_36807" x="0.765625" y="6.45312" width="28.168" height="27.998" filterUnits="userSpaceOnUse" color-interpolation-filters="sRGB">
<feFlood flood-opacity="0" result="BackgroundImageFix"/>
<feColorMatrix in="SourceAlpha" type="matrix" values="0 0 0 0 0 0 0 0 0 0 0 0 0 0 0 0 0 0 127 0" result="hardAlpha"/>
<feMorphology radius="0.4375" operator="dilate" in="SourceAlpha" result="effect1_dropShadow_1059_36807"/>
<feOffset dy="0.4375"/>
<feGaussianBlur stdDeviation="0.984375"/>
<feComposite in2="hardAlpha" operator="out"/>
<feColorMatrix type="matrix" values="0 0 0 0 0.0901961 0 0 0 0 0 0 0 0 0 0.647059 0 0 0 0.2 0"/>
<feBlend mode="normal" in2="BackgroundImageFix" result="effect1_dropShadow_1059_36807"/>
<feBlend mode="normal" in="SourceGraphic" in2="effect1_dropShadow_1059_36807" result="shape"/>
</filter>
<filter id="filter1_d_1059_36807" x="2.875" y="8.53516" width="23.9688" height="23.7988" filterUnits="userSpaceOnUse" color-interpolation-filters="sRGB">
<feFlood flood-opacity="0" result="BackgroundImageFix"/>
<feColorMatrix in="SourceAlpha" type="matrix" values="0 0 0 0 0 0 0 0 0 0 0 0 0 0 0 0 0 0 127 0" result="hardAlpha"/>
<feMorphology radius="0.4375" operator="dilate" in="SourceAlpha" result="effect1_dropShadow_1059_36807"/>
<feOffset dy="0.4375"/>
<feGaussianBlur stdDeviation="0.984375"/>
<feComposite in2="hardAlpha" operator="out"/>
<feColorMatrix type="matrix" values="0 0 0 0 0.0901961 0 0 0 0 0 0 0 0 0 0.647059 0 0 0 0.2 0"/>
<feBlend mode="normal" in2="BackgroundImageFix" result="effect1_dropShadow_1059_36807"/>
<feBlend mode="normal" in="SourceGraphic" in2="effect1_dropShadow_1059_36807" result="shape"/>
</filter>
<filter id="filter2_d_1059_36807" x="15.0664" y="0.736328" width="11.4141" height="11.6641" filterUnits="userSpaceOnUse" color-interpolation-filters="sRGB">
<feFlood flood-opacity="0" result="BackgroundImageFix"/>
<feColorMatrix in="SourceAlpha" type="matrix" values="0 0 0 0 0 0 0 0 0 0 0 0 0 0 0 0 0 0 127 0" result="hardAlpha"/>
<feMorphology radius="0.4375" operator="dilate" in="SourceAlpha" result="effect1_dropShadow_1059_36807"/>
<feOffset dy="0.4375"/>
<feGaussianBlur stdDeviation="0.984375"/>
<feComposite in2="hardAlpha" operator="out"/>
<feColorMatrix type="matrix" values="0 0 0 0 0.0901961 0 0 0 0 0 0 0 0 0 0.647059 0 0 0 0.25 0"/>
<feBlend mode="normal" in2="BackgroundImageFix" result="effect1_dropShadow_1059_36807"/>
<feBlend mode="normal" in="SourceGraphic" in2="effect1_dropShadow_1059_36807" result="shape"/>
</filter>
<filter id="filter3_d_1059_36807" x="25.332" y="7.28516" width="7.16797" height="7.41992" filterUnits="userSpaceOnUse" color-interpolation-filters="sRGB">
<feFlood flood-opacity="0" result="BackgroundImageFix"/>
<feColorMatrix in="SourceAlpha" type="matrix" values="0 0 0 0 0 0 0 0 0 0 0 0 0 0 0 0 0 0 127 0" result="hardAlpha"/>
<feMorphology radius="0.4375" operator="dilate" in="SourceAlpha" result="effect1_dropShadow_1059_36807"/>
<feOffset dy="0.4375"/>
<feGaussianBlur stdDeviation="0.65625"/>
<feComposite in2="hardAlpha" operator="out"/>
<feColorMatrix type="matrix" values="0 0 0 0 0.0901961 0 0 0 0 0 0 0 0 0 0.647059 0 0 0 0.25 0"/>
<feBlend mode="normal" in2="BackgroundImageFix" result="effect1_dropShadow_1059_36807"/>
<feBlend mode="normal" in="SourceGraphic" in2="effect1_dropShadow_1059_36807" result="shape"/>
</filter>
<linearGradient id="paint0_linear_1059_36807" x1="25.7181" y1="21.3798" x2="17.2797" y2="6.11048" gradientUnits="userSpaceOnUse">
<stop stop-color="#1700A5"/>
<stop offset="0.260354" stop-color="#0074FF"/>
<stop offset="1" stop-color="#0047FF"/>
</linearGradient>
</defs>
</svg>
