<svg width="1400" height="1207" viewBox="0 0 1400 1207" fill="none" xmlns="http://www.w3.org/2000/svg">
<g clip-path="url(#clip0_583_9550)">
<rect width="1400" height="1207" rx="50" fill="#452076"/>
<path d="M-106.274 1087.88L-81.612 950.871L700.188 604.095L-106.274 1087.88Z" fill="#572A93"/>
<path d="M1408 -15V124.207L700 604L1408 -15Z" fill="#572A93"/>
<path d="M1307 1376.57L1337.83 1240.82L700.067 603.999L1307 1376.57Z" fill="#572A93"/>
<path d="M-8 -15V124.207L700 604L-8 -15Z" fill="#572A93"/>
<path d="M1640.24 585.092L1550.76 691.731L700 604.18L1640.24 585.092Z" fill="#572A93"/>
<path d="M-239.999 585.092L-150.518 691.731L700.246 604.18L-239.999 585.092Z" fill="#572A93"/>
<path d="M518.256 1526.62L433.19 1416.43L700.433 603.999L518.256 1526.62Z" fill="#572A93"/>
<path d="M719.26 -335.999L612.604 -246.539L699.986 604.243L719.26 -335.999Z" fill="#572A93"/>
<path d="M132.596 1353.78L104.351 1217.47L700.273 604.002L132.596 1353.78Z" fill="#572A93"/>
<path d="M899.477 1523.03L982.454 1411.26L699.962 604.002L899.477 1523.03Z" fill="#572A93"/>
<path d="M263.548 -229.001L213.274 -99.189L700.217 603.912L263.548 -229.001Z" fill="#572A93"/>
<path d="M1087.24 -252.998L1144.97 -126.328L699.724 603.891L1087.24 -252.998Z" fill="#572A93"/>
<path d="M-172 250.945L-126.395 382.47L699.717 603.839L-172 250.945Z" fill="#572A93"/>
<path d="M1570.91 249.423L1525.6 381.051L699.999 604.3L1570.91 249.423Z" fill="#572A93"/>
<path d="M1505.39 1089.45L1481.03 952.39L700.002 603.889L1505.39 1089.45Z" fill="#572A93"/>
</g>
<defs>
<clipPath id="clip0_583_9550">
<rect width="1400" height="1207" rx="50" fill="white"/>
</clipPath>
</defs>
</svg>
